<?xml version="1.0" encoding="UTF-8" standalone="no"?>
<svg
   xmlns:dc="http://purl.org/dc/elements/1.1/"
   xmlns:cc="http://creativecommons.org/ns#"
   xmlns:rdf="http://www.w3.org/1999/02/22-rdf-syntax-ns#"
   xmlns:svg="http://www.w3.org/2000/svg"
   xmlns="http://www.w3.org/2000/svg"
   xmlns:sodipodi="http://sodipodi.sourceforge.net/DTD/sodipodi-0.dtd"
   xmlns:inkscape="http://www.inkscape.org/namespaces/inkscape"
   version="1.1"
   id="svg10"
   xml:space="preserve"
   width="258.40353"
   height="69.673599"
   viewBox="0 0 258.40352 69.673599"
   sodipodi:docname="logoIfCinza.svg"
   inkscape:version="1.0.2-2 (e86c870879, 2021-01-15)"><metadata
     id="metadata16"><rdf:RDF><cc:Work
         rdf:about=""><dc:format>image/svg+xml</dc:format><dc:type
           rdf:resource="http://purl.org/dc/dcmitype/StillImage" /><dc:title></dc:title></cc:Work></rdf:RDF></metadata><defs
     id="defs14"><clipPath
       clipPathUnits="userSpaceOnUse"
       id="clipPath38"><path
         d="M 0,595.275 H 841.891 V 0 H 0 Z"
         id="path36" /></clipPath><clipPath
       clipPathUnits="userSpaceOnUse"
       id="clipPath288"><path
         d="M 368.503,609.448 H 478.411 V 499.083 H 368.503 Z"
         id="path286" /></clipPath><clipPath
       clipPathUnits="userSpaceOnUse"
       id="clipPath292"><path
         d="M 368.503,609.448 478.411,499.388 368.505,499.083 Z"
         id="path290" /></clipPath><clipPath
       clipPathUnits="userSpaceOnUse"
       id="clipPath296"><path
         d="M -32768,32767 H 32767 V -32768 H -32768 Z"
         id="path294" /></clipPath><linearGradient
       x1="0"
       y1="0"
       x2="1"
       y2="0"
       gradientUnits="userSpaceOnUse"
       gradientTransform="matrix(0,110.3652,110.3652,0,423.457,499.08298)"
       spreadMethod="pad"
       id="linearGradient302"><stop
         style="stop-opacity:0;stop-color:#ffffff"
         offset="0"
         id="stop298" /><stop
         style="stop-opacity:1;stop-color:#ffffff"
         offset="1"
         id="stop300" /></linearGradient><mask
       maskUnits="userSpaceOnUse"
       x="0"
       y="0"
       width="1"
       height="1"
       id="mask304"><g
         id="g314"><g
           clip-path="url(#clipPath296)"
           id="g312"><g
             id="g310"><g
               id="g308"><path
                 d="M -32768,32767 H 32767 V -32768 H -32768 Z"
                 style="fill:url(#linearGradient302);stroke:none"
                 id="path306" /></g></g></g></g></mask><linearGradient
       x1="0"
       y1="0"
       x2="1"
       y2="0"
       gradientUnits="userSpaceOnUse"
       gradientTransform="matrix(0,110.3652,110.3652,0,423.457,499.08298)"
       spreadMethod="pad"
       id="linearGradient320"><stop
         style="stop-opacity:1;stop-color:#ffffff"
         offset="0"
         id="stop316" /><stop
         style="stop-opacity:1;stop-color:#e3e3e3"
         offset="1"
         id="stop318" /></linearGradient><clipPath
       clipPathUnits="userSpaceOnUse"
       id="clipPath348"><path
         d="M -14.1719,609.448 H 183.492 V 411.023 H -14.1719 Z"
         id="path346" /></clipPath><clipPath
       clipPathUnits="userSpaceOnUse"
       id="clipPath352"><path
         d="M -14.097,609.448 183.492,411.023 H -14.172 Z"
         id="path350" /></clipPath><clipPath
       clipPathUnits="userSpaceOnUse"
       id="clipPath356"><path
         d="M -32768,32767 H 32767 V -32768 H -32768 Z"
         id="path354" /></clipPath><linearGradient
       x1="0"
       y1="0"
       x2="1"
       y2="0"
       gradientUnits="userSpaceOnUse"
       gradientTransform="matrix(0,198.42479,198.42479,0,84.660103,411.02338)"
       spreadMethod="pad"
       id="linearGradient362"><stop
         style="stop-opacity:0;stop-color:#ffffff"
         offset="0"
         id="stop358" /><stop
         style="stop-opacity:1;stop-color:#ffffff"
         offset="1"
         id="stop360" /></linearGradient><mask
       maskUnits="userSpaceOnUse"
       x="0"
       y="0"
       width="1"
       height="1"
       id="mask364"><g
         id="g374"><g
           clip-path="url(#clipPath356)"
           id="g372"><g
             id="g370"><g
               id="g368"><path
                 d="M -32768,32767 H 32767 V -32768 H -32768 Z"
                 style="fill:url(#linearGradient362);stroke:none"
                 id="path366" /></g></g></g></g></mask><linearGradient
       x1="0"
       y1="0"
       x2="1"
       y2="0"
       gradientUnits="userSpaceOnUse"
       gradientTransform="matrix(0,198.42479,198.42479,0,84.660103,411.02338)"
       spreadMethod="pad"
       id="linearGradient380"><stop
         style="stop-opacity:1;stop-color:#ffffff"
         offset="0"
         id="stop376" /><stop
         style="stop-opacity:1;stop-color:#e3e3e3"
         offset="1"
         id="stop378" /></linearGradient><clipPath
       clipPathUnits="userSpaceOnUse"
       id="clipPath422"><path
         d="M 0,595.275 H 841.891 V 0 H 0 Z"
         id="path420" /></clipPath><clipPath
       clipPathUnits="userSpaceOnUse"
       id="clipPath534"><path
         d="M 0,595.275 H 841.891 V 0 H 0 Z"
         id="path532" /></clipPath><clipPath
       clipPathUnits="userSpaceOnUse"
       id="clipPath606"><path
         d="M 0,595.275 H 841.891 V 0 H 0 Z"
         id="path604" /></clipPath><clipPath
       clipPathUnits="userSpaceOnUse"
       id="clipPath618"><path
         d="M 0,595.275 H 841.891 V 0 H 0 Z"
         id="path616" /></clipPath></defs><sodipodi:namedview
     pagecolor="#ffffff"
     bordercolor="#666666"
     borderopacity="1"
     objecttolerance="10"
     gridtolerance="10"
     guidetolerance="10"
     inkscape:pageopacity="0"
     inkscape:pageshadow="2"
     inkscape:window-width="1366"
     inkscape:window-height="697"
     id="namedview12"
     showgrid="false"
     inkscape:zoom="0.45168595"
     inkscape:cx="279.50338"
     inkscape:cy="9.0639671"
     inkscape:window-x="-8"
     inkscape:window-y="-8"
     inkscape:window-maximized="1"
     inkscape:current-layer="g791"
     inkscape:document-rotation="0" /><g
     id="g18"
     inkscape:groupmode="layer"
     inkscape:label="novoManual_IFGoiano (1)"
     transform="matrix(1.3333333,0,0,-1.3333333,-306.58386,523.64969)"><g
       id="g32" /><g
       id="g791"
       style="fill:#e9d204;fill-opacity:1"
       inkscape:groupmode="layer"><g
         id="g942"
         style="opacity:0.996675;fill:#e3e3e3;fill-opacity:1"><g
           id="g464"
           transform="translate(267.3582,356.37187)"
           style="fill:#e3e3e3;fill-opacity:1"><path
             d="m 0,0 c 0,-0.583 -0.473,-1.056 -1.056,-1.056 h -8.733 c -0.585,0 -1.057,0.473 -1.057,1.056 v 8.735 c 0,0.583 0.472,1.057 1.057,1.057 h 8.733 C -0.473,9.792 0,9.318 0,8.735 Z"
             style="fill:#e3e3e3;fill-opacity:1;fill-rule:nonzero;stroke:none"
             id="path466" /></g><g
           id="g468"
           transform="translate(254.3436,382.40408)"
           style="fill:#e3e3e3;fill-opacity:1"><path
             d="m 0,0 c 0,-0.584 -0.474,-1.057 -1.057,-1.057 h -8.734 c -0.584,0 -1.056,0.473 -1.056,1.057 v 8.734 c 0,0.584 0.472,1.056 1.056,1.056 h 8.734 C -0.474,9.79 0,9.318 0,8.734 Z"
             style="fill:#e3e3e3;fill-opacity:1;fill-rule:nonzero;stroke:none"
             id="path470" /></g><g
           id="g472"
           transform="translate(267.3582,382.40408)"
           style="fill:#e3e3e3;fill-opacity:1"><path
             d="m 0,0 c 0,-0.584 -0.473,-1.057 -1.056,-1.057 h -8.733 c -0.585,0 -1.057,0.473 -1.057,1.057 v 8.734 c 0,0.584 0.472,1.056 1.057,1.056 h 8.733 C -0.473,9.79 0,9.318 0,8.734 Z"
             style="fill:#e3e3e3;fill-opacity:1;fill-rule:nonzero;stroke:none"
             id="path474" /></g><g
           id="g476"
           transform="translate(241.3279,369.39617)"
           style="fill:#e3e3e3;fill-opacity:1"><path
             d="m 0,0 c 0,-0.583 -0.474,-1.056 -1.056,-1.056 h -8.735 c -0.583,0 -1.056,0.473 -1.056,1.056 v 8.734 c 0,0.584 0.473,1.057 1.056,1.057 h 8.735 C -0.474,9.791 0,9.318 0,8.734 Z"
             style="fill:#e3e3e3;fill-opacity:1;fill-rule:nonzero;stroke:none"
             id="path478" /></g><g
           id="g480"
           transform="translate(254.3436,369.39617)"
           style="fill:#e3e3e3;fill-opacity:1"><path
             d="m 0,0 c 0,-0.583 -0.474,-1.056 -1.057,-1.056 h -8.734 c -0.584,0 -1.056,0.473 -1.056,1.056 v 8.734 c 0,0.584 0.472,1.057 1.056,1.057 h 8.734 C -0.474,9.791 0,9.318 0,8.734 Z"
             style="fill:#e3e3e3;fill-opacity:1;fill-rule:nonzero;stroke:none"
             id="path482" /></g><g
           id="g484"
           transform="translate(241.3279,356.37187)"
           style="fill:#e3e3e3;fill-opacity:1"><path
             d="m 0,0 c 0,-0.583 -0.474,-1.056 -1.056,-1.056 h -8.735 c -0.583,0 -1.056,0.473 -1.056,1.056 v 8.735 c 0,0.583 0.473,1.057 1.056,1.057 h 8.735 C -0.474,9.792 0,9.318 0,8.735 Z"
             style="fill:#e3e3e3;fill-opacity:1;fill-rule:nonzero;stroke:none"
             id="path486" /></g><g
           id="g488"
           transform="translate(254.3436,356.37187)"
           style="fill:#e3e3e3;fill-opacity:1"><path
             d="m 0,0 c 0,-0.583 -0.474,-1.056 -1.057,-1.056 h -8.734 c -0.584,0 -1.056,0.473 -1.056,1.056 v 8.735 c 0,0.583 0.472,1.057 1.056,1.057 h 8.734 C -0.474,9.792 0,9.318 0,8.735 Z"
             style="fill:#e3e3e3;fill-opacity:1;fill-rule:nonzero;stroke:none"
             id="path490" /></g><g
           id="g492"
           transform="translate(241.3279,343.34357)"
           style="fill:#e3e3e3;fill-opacity:1"><path
             d="m 0,0 c 0,-0.583 -0.474,-1.057 -1.056,-1.057 h -8.735 c -0.583,0 -1.056,0.474 -1.056,1.057 v 8.735 c 0,0.583 0.473,1.055 1.056,1.055 h 8.735 C -0.474,9.79 0,9.318 0,8.735 Z"
             style="fill:#e3e3e3;fill-opacity:1;fill-rule:nonzero;stroke:none"
             id="path494" /></g><g
           id="g496"
           transform="translate(254.3436,343.34357)"
           style="fill:#e3e3e3;fill-opacity:1"><path
             d="m 0,0 c 0,-0.583 -0.474,-1.057 -1.057,-1.057 h -8.734 c -0.584,0 -1.056,0.474 -1.056,1.057 v 8.735 c 0,0.583 0.472,1.055 1.056,1.055 h 8.734 C -0.474,9.79 0,9.318 0,8.735 Z"
             style="fill:#e3e3e3;fill-opacity:1;fill-rule:nonzero;stroke:none"
             id="path498" /></g><g
           id="g500"
           transform="translate(241.8699,386.77028)"
           style="fill:#e3e3e3;fill-opacity:1"><path
             d="m 0,0 c 0,-3.294 -2.67,-5.964 -5.966,-5.964 -3.295,0 -5.966,2.67 -5.966,5.964 0,3.296 2.671,5.967 5.966,5.967 C -2.67,5.967 0,3.296 0,0"
             style="fill:#e3e3e3;fill-opacity:1;fill-rule:nonzero;stroke:none"
             id="path502" /></g><text
           transform="scale(1.0008696,-0.99913115)"
           style="font-variant:normal;font-weight:bold;font-stretch:normal;font-size:15.1291px;font-family:'Open Sans';-inkscape-font-specification:OpenSans-Bold;writing-mode:lr-tb;fill:#e3e3e3;fill-opacity:1;fill-rule:nonzero;stroke:none;stroke-width:1.00087"
           id="text506"
           x="273.63254"
           y="-368.89938"><tspan
             x="273.63254 278.64902 291.00064 299.38138 308.17142 313.20291 321.99301 333.45053 342.22556 354.28934 358.28287 366.63333 375.13541 386.36551 394.86758 404.88516 415.34244"
             y="-368.89938"
             sodipodi:role="line"
             id="tspan504"
             style="fill:#e3e3e3;fill-opacity:1;stroke-width:1.00087">INSTITUTO FEDERAL</tspan></text><text
           transform="scale(1.0008696,-0.99913115)"
           style="font-variant:normal;font-weight:normal;font-stretch:normal;font-size:11.4319px;font-family:'Open Sans';-inkscape-font-specification:OpenSans;writing-mode:lr-tb;fill:#e3e3e3;fill-opacity:1;fill-rule:nonzero;stroke:none;stroke-width:1.00087"
           id="text510"
           x="274.18607"
           y="-355.65689"><tspan
             x="274.18607 282.52298 289.43991 292.33719 298.70444 305.73581"
             y="-355.65689"
             sodipodi:role="line"
             id="tspan508"
             style="fill:#e3e3e3;fill-opacity:1;stroke-width:1.00087">Goiano</tspan></text><text
           transform="scale(1.0008696,-0.99913115)"
           style="font-variant:normal;font-weight:normal;font-stretch:normal;font-size:11.4319px;font-family:'Open Sans';-inkscape-font-specification:OpenSans;writing-mode:lr-tb;fill:#e3e3e3;fill-opacity:1;fill-rule:nonzero;stroke:none;stroke-width:1.00087"
           id="text514"
           x="274.18607"
           y="-343.51334"><tspan
             x="274.18607"
             y="-343.51334"
             id="tspan512"
             style="fill:#e3e3e3;fill-opacity:1;stroke-width:1.00087">C</tspan></text><text
           transform="scale(1.0008696,-0.99913115)"
           style="font-variant:normal;font-weight:normal;font-stretch:normal;font-size:11.4319px;font-family:'Open Sans';-inkscape-font-specification:OpenSans;writing-mode:lr-tb;fill:#e3e3e3;fill-opacity:1;fill-rule:nonzero;stroke:none;stroke-width:1.00087"
           id="text518"
           x="281.39957"
           y="-343.51334"><tspan
             x="281.39957"
             y="-343.51334"
             id="tspan516"
             style="fill:#e3e3e3;fill-opacity:1;stroke-width:1.00087">a</tspan></text><text
           transform="scale(1.0008696,-0.99913115)"
           style="font-variant:normal;font-weight:normal;font-stretch:normal;font-size:11.4319px;font-family:'Open Sans';-inkscape-font-specification:OpenSans;writing-mode:lr-tb;fill:#e3e3e3;fill-opacity:1;fill-rule:nonzero;stroke:none;stroke-width:1.00087"
           id="text522"
           x="287.75577"
           y="-343.51334"><tspan
             x="287.75577 298.40598 305.42593 312.45737 317.91989"
             y="-343.51334"
             sodipodi:role="line"
             id="tspan520"
             style="fill:#e3e3e3;fill-opacity:1;stroke-width:1.00087">mpus </tspan></text><text
           transform="scale(1.0008696,-0.99913115)"
           style="font-variant:normal;font-weight:normal;font-stretch:normal;font-size:11.4319px;font-family:'Open Sans';-inkscape-font-specification:OpenSans;writing-mode:lr-tb;fill:#e3e3e3;fill-opacity:1;fill-rule:nonzero;stroke:none;stroke-width:1.00087"
           id="text526"
           x="320.8295"
           y="-343.51334"><tspan
             x="320.8295"
             y="-343.51334"
             sodipodi:role="line"
             id="tspan524"
             style="fill:#e3e3e3;fill-opacity:1;stroke-width:1.00087">Iporá</tspan></text></g></g></g></svg>
