<?xml version="1.0" encoding="UTF-8" standalone="no"?>
<svg
   xmlns:dc="http://purl.org/dc/elements/1.1/"
   xmlns:cc="http://creativecommons.org/ns#"
   xmlns:rdf="http://www.w3.org/1999/02/22-rdf-syntax-ns#"
   xmlns:svg="http://www.w3.org/2000/svg"
   xmlns="http://www.w3.org/2000/svg"
   xmlns:sodipodi="http://sodipodi.sourceforge.net/DTD/sodipodi-0.dtd"
   xmlns:inkscape="http://www.inkscape.org/namespaces/inkscape"
   version="1.1"
   id="svg1738"
   xml:space="preserve"
   width="49.893734"
   height="67.267601"
   viewBox="0 0 49.893733 67.267601"
   sodipodi:docname="logo.svg"
   inkscape:version="1.0.2-2 (e86c870879, 2021-01-15)"><metadata
     id="metadata1744"><rdf:RDF><cc:Work
         rdf:about=""><dc:format>image/svg+xml</dc:format><dc:type
           rdf:resource="http://purl.org/dc/dcmitype/StillImage" /><dc:title></dc:title></cc:Work></rdf:RDF></metadata><defs
     id="defs1742"><clipPath
       clipPathUnits="userSpaceOnUse"
       id="clipPath1766"><path
         d="M 0,595.275 H 841.891 V 0 H 0 Z"
         id="path1764" /></clipPath><clipPath
       clipPathUnits="userSpaceOnUse"
       id="clipPath2016"><path
         d="M 368.503,609.448 H 478.411 V 499.083 H 368.503 Z"
         id="path2014" /></clipPath><clipPath
       clipPathUnits="userSpaceOnUse"
       id="clipPath2020"><path
         d="M 368.503,609.448 478.411,499.388 368.505,499.083 Z"
         id="path2018" /></clipPath><clipPath
       clipPathUnits="userSpaceOnUse"
       id="clipPath2024"><path
         d="M -32768,32767 H 32767 V -32768 H -32768 Z"
         id="path2022" /></clipPath><linearGradient
       x1="0"
       y1="0"
       x2="1"
       y2="0"
       gradientUnits="userSpaceOnUse"
       gradientTransform="matrix(0,110.3652,110.3652,0,423.457,499.08298)"
       spreadMethod="pad"
       id="linearGradient2030"><stop
         style="stop-opacity:0;stop-color:#ffffff"
         offset="0"
         id="stop2026" /><stop
         style="stop-opacity:1;stop-color:#ffffff"
         offset="1"
         id="stop2028" /></linearGradient><mask
       maskUnits="userSpaceOnUse"
       x="0"
       y="0"
       width="1"
       height="1"
       id="mask2032"><g
         id="g2042"><g
           clip-path="url(#clipPath2024)"
           id="g2040"><g
             id="g2038"><g
               id="g2036"><path
                 d="M -32768,32767 H 32767 V -32768 H -32768 Z"
                 style="fill:url(#linearGradient2030);stroke:none"
                 id="path2034" /></g></g></g></g></mask><linearGradient
       x1="0"
       y1="0"
       x2="1"
       y2="0"
       gradientUnits="userSpaceOnUse"
       gradientTransform="matrix(0,110.3652,110.3652,0,423.457,499.08298)"
       spreadMethod="pad"
       id="linearGradient2048"><stop
         style="stop-opacity:1;stop-color:#ffffff"
         offset="0"
         id="stop2044" /><stop
         style="stop-opacity:1;stop-color:#e3e3e3"
         offset="1"
         id="stop2046" /></linearGradient><clipPath
       clipPathUnits="userSpaceOnUse"
       id="clipPath2076"><path
         d="M -14.1719,609.448 H 183.492 V 411.023 H -14.1719 Z"
         id="path2074" /></clipPath><clipPath
       clipPathUnits="userSpaceOnUse"
       id="clipPath2080"><path
         d="M -14.097,609.448 183.492,411.023 H -14.172 Z"
         id="path2078" /></clipPath><clipPath
       clipPathUnits="userSpaceOnUse"
       id="clipPath2084"><path
         d="M -32768,32767 H 32767 V -32768 H -32768 Z"
         id="path2082" /></clipPath><linearGradient
       x1="0"
       y1="0"
       x2="1"
       y2="0"
       gradientUnits="userSpaceOnUse"
       gradientTransform="matrix(0,198.42479,198.42479,0,84.660103,411.02338)"
       spreadMethod="pad"
       id="linearGradient2090"><stop
         style="stop-opacity:0;stop-color:#ffffff"
         offset="0"
         id="stop2086" /><stop
         style="stop-opacity:1;stop-color:#ffffff"
         offset="1"
         id="stop2088" /></linearGradient><mask
       maskUnits="userSpaceOnUse"
       x="0"
       y="0"
       width="1"
       height="1"
       id="mask2092"><g
         id="g2102"><g
           clip-path="url(#clipPath2084)"
           id="g2100"><g
             id="g2098"><g
               id="g2096"><path
                 d="M -32768,32767 H 32767 V -32768 H -32768 Z"
                 style="fill:url(#linearGradient2090);stroke:none"
                 id="path2094" /></g></g></g></g></mask><linearGradient
       x1="0"
       y1="0"
       x2="1"
       y2="0"
       gradientUnits="userSpaceOnUse"
       gradientTransform="matrix(0,198.42479,198.42479,0,84.660103,411.02338)"
       spreadMethod="pad"
       id="linearGradient2108"><stop
         style="stop-opacity:1;stop-color:#ffffff"
         offset="0"
         id="stop2104" /><stop
         style="stop-opacity:1;stop-color:#e3e3e3"
         offset="1"
         id="stop2106" /></linearGradient><clipPath
       clipPathUnits="userSpaceOnUse"
       id="clipPath2150"><path
         d="M 0,595.275 H 841.891 V 0 H 0 Z"
         id="path2148" /></clipPath><clipPath
       clipPathUnits="userSpaceOnUse"
       id="clipPath2262"><path
         d="M 0,595.275 H 841.891 V 0 H 0 Z"
         id="path2260" /></clipPath><clipPath
       clipPathUnits="userSpaceOnUse"
       id="clipPath2334"><path
         d="M 0,595.275 H 841.891 V 0 H 0 Z"
         id="path2332" /></clipPath><clipPath
       clipPathUnits="userSpaceOnUse"
       id="clipPath2346"><path
         d="M 0,595.275 H 841.891 V 0 H 0 Z"
         id="path2344" /></clipPath></defs><sodipodi:namedview
     pagecolor="#ffffff"
     bordercolor="#666666"
     borderopacity="1"
     objecttolerance="10"
     gridtolerance="10"
     guidetolerance="10"
     inkscape:pageopacity="0"
     inkscape:pageshadow="2"
     inkscape:window-width="1366"
     inkscape:window-height="697"
     id="namedview1740"
     showgrid="false"
     inkscape:zoom="2.6710343"
     inkscape:cx="52.727678"
     inkscape:cy="54.603388"
     inkscape:window-x="-8"
     inkscape:window-y="-8"
     inkscape:window-maximized="1"
     inkscape:current-layer="g1746"
     inkscape:document-rotation="0" /><g
     id="g1746"
     inkscape:groupmode="layer"
     inkscape:label="novoManual_IFGoiano (1)"
     transform="matrix(1.3333333,0,0,-1.3333333,-557.42985,446.97919)"><text
       transform="matrix(1,0,0,-1,171.6719,518.3394)"
       style="font-variant:normal;font-weight:bold;font-stretch:normal;font-size:28px;font-family:'Open Sans';-inkscape-font-specification:OpenSans-Bold;writing-mode:lr-tb;fill:#ffffff;fill-opacity:1;fill-rule:nonzero;stroke:none"
       id="text2134"><tspan
         x="0 19.32 37.043999 45.584 54.124001 68.515999 85.428001 99.82 117.152 133.7"
         y="0"
         sodipodi:role="line"
         id="tspan2130">Aplicações</tspan><tspan
         x="-10.304 8.092 25.424 38.136002 46.675999 60.34 77.671997 96.068001 108.22 125.132 133.672"
         y="32.004002"
         sodipodi:role="line"
         id="tspan2132">horizontais</tspan></text><g
       id="g2192"
       transform="translate(455.4927,298.869)"><path
         d="m 0,0 c 0,-0.583 -0.473,-1.056 -1.056,-1.056 h -8.733 c -0.585,0 -1.057,0.473 -1.057,1.056 v 8.735 c 0,0.583 0.472,1.057 1.057,1.057 h 8.733 C -0.473,9.792 0,9.318 0,8.735 Z"
         style="fill:#359830;fill-opacity:1;fill-rule:nonzero;stroke:none"
         id="path2194" /></g><g
       id="g2196"
       transform="translate(442.4781,324.9012)"><path
         d="m 0,0 c 0,-0.584 -0.474,-1.057 -1.057,-1.057 h -8.734 c -0.584,0 -1.056,0.473 -1.056,1.057 v 8.734 c 0,0.584 0.472,1.056 1.056,1.056 h 8.734 C -0.474,9.79 0,9.318 0,8.734 Z"
         style="fill:#359830;fill-opacity:1;fill-rule:nonzero;stroke:none"
         id="path2198" /></g><g
       id="g2200"
       transform="translate(455.4927,324.9012)"><path
         d="m 0,0 c 0,-0.584 -0.473,-1.057 -1.056,-1.057 h -8.733 c -0.585,0 -1.057,0.473 -1.057,1.057 v 8.734 c 0,0.584 0.472,1.056 1.057,1.056 h 8.733 C -0.473,9.79 0,9.318 0,8.734 Z"
         style="fill:#359830;fill-opacity:1;fill-rule:nonzero;stroke:none"
         id="path2202" /></g><g
       id="g2204"
       transform="translate(429.4624,311.8933)"><path
         d="m 0,0 c 0,-0.583 -0.474,-1.056 -1.056,-1.056 h -8.735 c -0.583,0 -1.056,0.473 -1.056,1.056 v 8.734 c 0,0.584 0.473,1.057 1.056,1.057 h 8.735 C -0.474,9.791 0,9.318 0,8.734 Z"
         style="fill:#359830;fill-opacity:1;fill-rule:nonzero;stroke:none"
         id="path2206" /></g><g
       id="g2208"
       transform="translate(442.4781,311.8933)"><path
         d="m 0,0 c 0,-0.583 -0.474,-1.056 -1.057,-1.056 h -8.734 c -0.584,0 -1.056,0.473 -1.056,1.056 v 8.734 c 0,0.584 0.472,1.057 1.056,1.057 h 8.734 C -0.474,9.791 0,9.318 0,8.734 Z"
         style="fill:#359830;fill-opacity:1;fill-rule:nonzero;stroke:none"
         id="path2210" /></g><g
       id="g2212"
       transform="translate(429.4624,298.869)"><path
         d="m 0,0 c 0,-0.583 -0.474,-1.056 -1.056,-1.056 h -8.735 c -0.583,0 -1.056,0.473 -1.056,1.056 v 8.735 c 0,0.583 0.473,1.057 1.056,1.057 h 8.735 C -0.474,9.792 0,9.318 0,8.735 Z"
         style="fill:#359830;fill-opacity:1;fill-rule:nonzero;stroke:none"
         id="path2214" /></g><g
       id="g2216"
       transform="translate(442.4781,298.869)"><path
         d="m 0,0 c 0,-0.583 -0.474,-1.056 -1.057,-1.056 h -8.734 c -0.584,0 -1.056,0.473 -1.056,1.056 v 8.735 c 0,0.583 0.472,1.057 1.056,1.057 h 8.734 C -0.474,9.792 0,9.318 0,8.735 Z"
         style="fill:#359830;fill-opacity:1;fill-rule:nonzero;stroke:none"
         id="path2218" /></g><g
       id="g2220"
       transform="translate(429.4624,285.8407)"><path
         d="m 0,0 c 0,-0.583 -0.474,-1.057 -1.056,-1.057 h -8.735 c -0.583,0 -1.056,0.474 -1.056,1.057 v 8.735 c 0,0.583 0.473,1.055 1.056,1.055 h 8.735 C -0.474,9.79 0,9.318 0,8.735 Z"
         style="fill:#359830;fill-opacity:1;fill-rule:nonzero;stroke:none"
         id="path2222" /></g><g
       id="g2224"
       transform="translate(442.4781,285.8407)"><path
         d="m 0,0 c 0,-0.583 -0.474,-1.057 -1.057,-1.057 h -8.734 c -0.584,0 -1.056,0.474 -1.056,1.057 v 8.735 c 0,0.583 0.472,1.055 1.056,1.055 h 8.734 C -0.474,9.79 0,9.318 0,8.735 Z"
         style="fill:#359830;fill-opacity:1;fill-rule:nonzero;stroke:none"
         id="path2226" /></g><g
       id="g2228"
       transform="translate(430.0044,329.2674)"><path
         d="m 0,0 c 0,-3.294 -2.67,-5.964 -5.966,-5.964 -3.295,0 -5.966,2.67 -5.966,5.964 0,3.296 2.671,5.967 5.966,5.967 C -2.67,5.967 0,3.296 0,0"
         style="fill:#c90c0f;fill-opacity:1;fill-rule:nonzero;stroke:none"
         id="path2230" /></g></g></svg>
